<svg id="Layer_1" data-name="Layer 1" xmlns="http://www.w3.org/2000/svg" viewBox="0 0 121.58 122.87"><defs><style>.cls-1{fill:#f2f2f2;}</style></defs><path class="cls-1" d="M112.67,0H8.9A8.92,8.92,0,0,0,0,8.9V91.76a8.91,8.91,0,0,0,8.9,8.9h9.91v18.75a3.48,3.48,0,0,0,6.06,2.32l23-21.07h64.8a8.93,8.93,0,0,0,8.91-8.9V8.9A8.93,8.93,0,0,0,112.67,0Zm2,91.74a2,2,0,0,1-2,2H46.49a3.5,3.5,0,0,0-2.41,1L25.8,111.27V97.19a3.48,3.48,0,0,0-3.47-3.48H9A2,2,0,0,1,7,91.76V8.9A2,2,0,0,1,8.9,7H112.67a2,2,0,0,1,2,2Z" transform="translate(0 0)"/><path class="cls-1" d="M68,66.27H27a3.5,3.5,0,0,0,0,7H68a3.5,3.5,0,0,0,0-7Z" transform="translate(0 0)"/><path class="cls-1" d="M95.06,26.46h-.37L27,26.41a3.5,3.5,0,0,0,0,7H94.69a3.48,3.48,0,0,0,.37-6.95Z" transform="translate(0 0)"/><path class="cls-1" d="M87.66,46.34H27a3.48,3.48,0,0,0,0,6.95H87.66a3.48,3.48,0,0,0,0-6.95Z" transform="translate(0 0)"/></svg>