<svg xmlns="http://www.w3.org/2000/svg" xmlns:xlink="http://www.w3.org/1999/xlink" viewBox="0 0 1429.42 624.08"><defs><style>.cls-1{fill:none;}.cls-2{clip-path:url(#clip-path);}.cls-3{clip-path:url(#clip-path-2);}.cls-4{opacity:0.29;}.cls-5{clip-path:url(#clip-path-3);}.cls-6{clip-path:url(#clip-path-4);}</style><clipPath id="clip-path" transform="translate(7.42 129.18)"><rect class="cls-1" x="578.86" width="341.24" height="356.46" rx="10.39"/></clipPath><clipPath id="clip-path-2" transform="translate(7.42 129.18)"><rect class="cls-1" x="8.79" y="96.66" width="254.01" height="277.23" rx="10.39" transform="translate(-16.32 10.21) rotate(-4.06)"/></clipPath><clipPath id="clip-path-3" transform="translate(7.42 129.18)"><rect class="cls-1" x="889.67" y="100.61" width="280.73" height="321.97" rx="10.39" transform="translate(57.49 -166.84) rotate(9.52)"/></clipPath><clipPath id="clip-path-4" transform="translate(7.42 129.18)"><rect class="cls-1" x="290.49" y="46.23" width="330.44" height="374.4" rx="9.38"/></clipPath><image id="image" width="6179" height="4119" xlink:href="Happy-Woman-YellowPan.jpg"/></defs><g id="Camada_2" data-name="Camada 2"><g id="Camada_1-2" data-name="Camada 1"><g class="cls-2"><use transform="translate(417.08 41.12) scale(0.11)" xlink:href="#image"/></g><g class="cls-3"><image width="4672" height="7008" transform="translate(0 164.93) rotate(-4.06) scale(0.06)" xlink:href="Economic-Woman-Working.jpg"/></g><path class="cls-4" d="M1192.7,140.44l-48.33,288a23.5,23.5,0,0,1-27,19.28l-250.3-42a8.46,8.46,0,0,1-6.94-9.74l1.67-20.85H588.44a19.9,19.9,0,0,1-19.89-19.9V157.07a19.89,19.89,0,0,1,19.89-19.89H900.21a19.47,19.47,0,0,1,3.26.27l8.43-50.27a8.46,8.46,0,0,1,9.74-7l259.14,43.49A14.51,14.51,0,0,1,1192.7,140.44Z" transform="translate(7.42 129.18)"/><g class="cls-5"><image width="7952" height="5304" transform="translate(912.5 192.57) rotate(9.52) scale(0.07)" xlink:href="young-businesswoman-checking-her-tablet-with-copy-space.jpg"/></g><g class="cls-6"><image width="3553" height="5329" transform="translate(220.6) scale(0.12)" xlink:href="tiro-completo-mulheres-felizes-com-xicaras-de-cafe.jpg"/></g><g class="cls-2"><use transform="translate(417.08 41.12) scale(0.11)" xlink:href="#image"/></g></g></g></svg>