<svg xmlns="http://www.w3.org/2000/svg" viewBox="0 0 263.56 67.86"><g id="Camada_2" data-name="Camada 2"><g id="Camada_1-2" data-name="Camada 1"><path d="M72.43,1.48C70,1.83,69.62,2.11,68.67,5c-1.16,3.51-4,12.43-5.9,18.72H61.58c-1.83-5.48-4.18-12.26-6-17.46-2,6.05-4.11,12.05-5.94,17.46H48.47c-1.75-6-3.76-12.61-5.65-18.76-.92-2.84-1.3-3.23-3.59-3.47v-1h8.68v1c-2.6.28-2.67.66-2.18,2.42C47.1,8.64,48.51,13.31,50,18.27c1.93-5.59,4-11.7,5.83-17.46h1.13c2,6,3.93,11.52,6,17.49,1.47-4.67,3.48-10.92,4.25-14,.53-2,.24-2.49-2.74-2.84v-1h8Z"/><path d="M85.44,0A11.29,11.29,0,0,1,96.82,11.59c0,7.56-5.13,12.26-11.59,12.26A11.44,11.44,0,0,1,73.56,12.12C73.56,5.83,78,0,85.44,0Zm-.71,1.3c-3.93,0-7.51,3.3-7.51,9.87s3.58,11.35,8.57,11.35c4.25,0,7.45-3.16,7.45-9.94C93.24,5.2,89.34,1.3,84.73,1.3Z"/><path d="M119.76,23.33v-1c2.88-.28,3-.49,2.95-4.25l0-14.33c-2.88,6.43-7.52,16.47-8.75,19.57h-.91c-1.2-3.2-5.17-12.86-7.84-19.22-.59,12.3-.63,15.07-.63,15.74,0,2,.92,2.25,3.3,2.49v1H99.6v-1c2-.21,2.88-.63,3.16-2.53.21-1.54.25-2.81,1.16-15.63.14-1.83-.21-2.42-3.3-2.7v-1h6.11l7.76,17.81L122.82.49H129v1c-3,.35-3.41.66-3.34,3.12l.14,13.49c.14,3.76.25,3.94,3.34,4.25v1Z"/><path d="M144.92,23.33v-1c2.29-.28,2.57-.63,2.08-2s-1.16-3.13-1.9-5.34h-7.59c-.56,1.58-1.09,2.95-1.58,4.39-.77,2.28-.28,2.56,2.6,2.91v1h-8.12v-1c2.22-.28,2.78-.52,4-3.69L141.69.21,142.81,0c2.22,6,4.64,12.65,6.86,18.72,1.12,3.06,1.44,3.34,3.93,3.62v1ZM141.41,4.6c-1.12,3-2.32,6.22-3.37,9h6.57Z"/><path d="M179.28,1.48c-2.24.24-3,.59-3.09,2.21,0,1.12-.1,2.6-.1,5.87V23.64h-1.34l-15-18.37v8.78c0,3.16.1,4.74.17,5.76.07,1.8,1,2.32,3.48,2.53v1h-8.54v-1c2.18-.17,3-.7,3.17-2.42.1-1.13.17-2.71.17-5.9v-9a3.07,3.07,0,0,0-.7-2.32c-.67-.88-1.41-1.09-3.13-1.26v-1h5.27l14.9,17.67V9.56c0-3.27-.07-4.78-.18-5.84-.1-1.58-.91-2.07-3.72-2.24v-1h8.67Z"/><path d="M190,23.33v-1c2.88-.31,3.16-.45,3.16-3.44V5c0-3-.28-3.16-3.16-3.47v-1h9.41v1c-2.91.31-3.19.45-3.19,3.47v14c0,3,.28,3.13,3.19,3.44v1Z"/><path d="M227.21,1.48c-2.25.24-3,.59-3.09,2.21,0,1.12-.11,2.6-.11,5.87V23.64h-1.33l-15-18.37v8.78c0,3.16.11,4.74.18,5.76.07,1.8,1,2.32,3.48,2.53v1h-8.54v-1c2.18-.17,3-.7,3.16-2.42.11-1.13.18-2.71.18-5.9v-9a3,3,0,0,0-.71-2.32c-.66-.88-1.4-1.09-3.12-1.26v-1h5.27l14.89,17.67V9.56c0-3.27-.07-4.78-.17-5.84-.11-1.58-.92-2.07-3.73-2.24v-1h8.68Z"/><path d="M28.33,66.83V64.91c4.46-.55,5-1.24,4.05-3.84S30.12,55,28.68,50.64H13.86c-1.1,3.09-2.13,5.76-3.09,8.57-1.51,4.46-.55,5,5.08,5.7v1.92H0V64.91c4.32-.55,5.42-1,7.82-7.21l14.2-36,2.2-.41C28.54,33,33.27,46,37.59,57.84c2.2,6,2.82,6.52,7.69,7.07v1.92ZM21.47,30.27c-2.19,5.89-4.53,12.14-6.58,17.56H27.71Z"/><path d="M88.77,55.85A88.36,88.36,0,0,1,85,66.21a62.7,62.7,0,0,1-12.56,1.65C56.05,67.86,47.68,57,47.68,45c0-14,10.63-23.67,26-23.67a69.24,69.24,0,0,1,13,1.58c.28,3.08.76,7.2,1.3,10.63L85.82,34c-1.37-4.6-3-7.41-6.52-8.85a18.82,18.82,0,0,0-7.2-1.3c-11.32,0-17.29,8.37-17.29,19.69,0,13.24,6.86,21.74,18,21.74,7,0,10.43-3.22,13.93-10.08Z"/><path d="M131.5,33a26,26,0,0,0-2.19-5.7c-1.1-1.85-1.78-2.33-5.56-2.33h-6.86V58.39c0,5.35.55,6.11,7.07,6.52v1.92H104V64.91c6.38-.41,6.92-1.1,6.92-6.52V25h-6.24c-3.77,0-4.87.41-6,2.47A31.42,31.42,0,0,0,96.38,33H94.32c.41-4.19.83-8.51,1-12.35h1.58c1,1.65,1.78,1.58,3.7,1.58H127.8c1.92,0,2.47-.28,3.5-1.58h1.64c0,3.23.28,8.16.62,12.14Z"/><path d="M139.19,66.83V64.91c5.62-.62,6.17-.89,6.17-6.72V31c0-5.9-.55-6.17-6.17-6.79V22.24h18.38v1.92c-5.69.62-6.24.89-6.24,6.79V58.19c0,5.89.55,6.1,6.24,6.72v1.92Z"/><path d="M187.27,21.28c11.74,0,22.23,9,22.23,22.64,0,14.75-10,23.94-22.64,23.94-13.17,0-22.77-10-22.77-22.91C164.09,32.67,172.8,21.28,187.27,21.28Zm-1.37,2.54c-7.68,0-14.68,6.45-14.68,19.27s7,22.16,16.74,22.16c8.3,0,14.54-6.17,14.54-19.41C202.5,31.43,194.89,23.82,185.9,23.82Z"/><path d="M263.56,24.16c-4.39.48-5.83,1.17-6,4.32-.07,2.2-.21,5.08-.21,11.46V67.45h-2.6L225.35,31.57V48.72c0,6.17.2,9.26.34,11.25.14,3.5,1.85,4.53,6.79,4.94v1.92H215.81V64.91c4.25-.34,5.9-1.37,6.18-4.74.2-2.19.34-5.28.34-11.52V31.16A6,6,0,0,0,221,26.63c-1.31-1.72-2.75-2.13-6.11-2.47V22.24h10.29l29.09,34.51V39.94c0-6.38-.14-9.33-.35-11.39-.2-3.09-1.78-4.05-7.27-4.39V22.24h16.95Z"/></g></g></svg>